<svg width="12" height="13" viewBox="0 0 12 13" fill="none" xmlns="http://www.w3.org/2000/svg">
<g clip-path="url(#clip0_50_77)">
<path d="M4.99455 0.760133C4.29611 0.814039 3.63283 0.978101 3.07736 1.23826C1.65002 1.90623 0.733615 3.26091 0.527365 5.01404C0.485177 5.37029 0.478146 6.0781 0.515646 6.37341C0.61174 7.15857 0.883615 7.88982 1.33596 8.58591C1.67815 9.11326 1.87736 9.53044 2.00393 9.99685C2.12815 10.4609 2.13752 10.5406 2.14924 11.4289L2.16096 12.2679L2.39768 12.2609L2.63674 12.2539L2.64377 11.7031C2.66252 10.1984 2.45627 9.43435 1.72971 8.30701C1.17424 7.45154 0.932834 6.58201 0.96799 5.57419C1.0383 3.61482 1.95471 2.18748 3.5508 1.55466C3.92346 1.40701 4.42268 1.29451 4.93127 1.24763C5.29924 1.21482 6.14768 1.23357 6.48049 1.28279C8.21252 1.54294 9.28362 2.40779 9.80627 3.97341C9.9094 4.28044 10.036 4.83826 10.0664 5.12888C10.0828 5.25779 10.1274 5.34685 10.6524 6.25388C10.9664 6.79529 11.236 7.26638 11.2524 7.30154C11.2735 7.35076 11.2735 7.37888 11.25 7.43748C11.2242 7.50076 11.1492 7.54529 10.65 7.79607L10.0805 8.08201L10.0735 8.96091C10.0641 9.80466 10.0617 9.84685 10.0102 9.99216C9.80393 10.5781 9.33049 10.9695 8.74221 11.0351C8.6719 11.0445 8.3719 11.0328 8.07658 11.014C7.77893 10.9929 7.51408 10.9765 7.48362 10.9765H7.42971L7.4344 11.614L7.44143 12.2539L7.68283 12.2609L7.9219 12.2679V11.8836V11.4992L8.44455 11.5015L8.96487 11.5039L9.18752 11.4265C9.7008 11.2484 10.1016 10.9039 10.3336 10.4398C10.5281 10.0554 10.5703 9.78357 10.5703 8.92341V8.37732L11.0133 8.15232C11.3906 7.96248 11.4727 7.91091 11.5641 7.81013C11.7352 7.62029 11.7867 7.36716 11.7 7.13982C11.6766 7.07654 11.4071 6.59607 11.1024 6.07107L10.5469 5.11482L10.4883 4.77029C10.3828 4.15857 10.2399 3.68982 10.0055 3.19529C9.53674 2.21326 8.8008 1.52888 7.78127 1.12341C7.01721 0.82107 5.9719 0.685133 4.99455 0.760133Z" fill="#FEFFD0" fill-opacity="0.6"/>
<path d="M5.90861 3.87964C5.87814 3.89605 5.83361 3.93589 5.81017 3.9687C5.78205 4.00855 5.64376 4.61089 5.40001 5.7523C5.06017 7.34136 5.03205 7.48433 5.06251 7.5523C5.14455 7.75386 5.43751 7.73511 5.50548 7.52417C5.55001 7.38823 6.23439 4.15855 6.23439 4.08589C6.23439 3.93823 6.03517 3.81167 5.90861 3.87964Z" fill="#FEFFD0" fill-opacity="0.6"/>
<path d="M3.85076 4.60855C3.80623 4.63433 2.99061 5.69371 2.96014 5.76636C2.94607 5.79917 3.77811 6.91011 3.84139 6.94527C4.04529 7.05308 4.27498 6.83277 4.16717 6.63355C4.14842 6.59371 3.74061 6.04292 3.56014 5.80621C3.54842 5.79214 3.66561 5.61402 3.86717 5.34214C4.14373 4.97417 4.19529 4.8898 4.19529 4.82183C4.19529 4.71402 4.16248 4.65777 4.07811 4.61324C3.99607 4.57105 3.92107 4.56871 3.85076 4.60855Z" fill="#FEFFD0" fill-opacity="0.6"/>
<path d="M7.20466 4.60391C7.12732 4.64141 7.07107 4.75859 7.08513 4.84766C7.09451 4.89922 7.20466 5.06797 7.41794 5.35156C7.61482 5.61406 7.72966 5.78516 7.71794 5.80391C7.70857 5.82031 7.56091 6.01953 7.38982 6.24922C7.06404 6.68516 7.04763 6.72266 7.11326 6.85156C7.15779 6.93828 7.21404 6.96875 7.32888 6.96875C7.44607 6.96875 7.46482 6.95 7.95232 6.29609L8.34138 5.77812L7.91951 5.21797C7.68747 4.91094 7.47654 4.64141 7.44841 4.61797C7.39685 4.57344 7.28201 4.56875 7.20466 4.60391Z" fill="#FEFFD0" fill-opacity="0.6"/>
</g>
<defs>
<clipPath id="clip0_50_77">
<rect width="12" height="12" fill="white" transform="translate(0 0.5)"/>
</clipPath>
</defs>
</svg>
