<svg width="12" height="13" viewBox="0 0 12 13" fill="none" xmlns="http://www.w3.org/2000/svg">
<path d="M4.84799 2.01202C4.17599 2.70802 4.17599 3.38002 4.82399 4.19602L5.30399 4.82002L4.75199 5.03602C2.23199 6.02002 0.79199 6.62002 0.55199 6.81202C0.38399 6.93202 0.23999 7.55602 0.23999 8.18002V9.30802L2.47199 10.364C5.51999 11.804 6.55199 11.804 9.47999 10.34L11.64 9.26002L11.712 8.15602C11.76 7.46002 11.664 6.98002 11.472 6.81202C11.208 6.62002 9.79199 6.02002 7.24799 5.03602L6.69599 4.82002L7.17599 4.19602C7.82399 3.35602 7.82399 2.63602 7.12799 1.98802C6.40799 1.31602 5.49599 1.31602 4.84799 2.01202ZM6.81599 2.32402C7.55999 3.04402 7.03199 4.34002 5.99999 4.34002C5.42399 4.34002 4.79999 3.71602 4.79999 3.14002C4.79999 2.56402 5.42399 1.94002 5.99999 1.94002C6.23999 1.94002 6.62399 2.10802 6.81599 2.32402ZM6.23999 6.26002C6.23999 7.05202 6.14399 7.70002 5.99999 7.70002C5.85599 7.70002 5.75999 7.05202 5.75999 6.26002C5.75999 5.46802 5.85599 4.82002 5.99999 4.82002C6.14399 4.82002 6.23999 5.46802 6.23999 6.26002ZM5.63999 7.94002C6.23999 8.44402 6.71999 7.79602 6.71999 6.50002V5.34802L8.83199 6.18802C9.98399 6.64402 11.016 7.12402 11.136 7.22002C11.472 7.55602 7.03199 9.62002 5.99999 9.62002C4.96799 9.62002 0.52799 7.55602 0.86399 7.22002C0.98399 7.12402 1.99199 6.64402 3.11999 6.21202L5.15999 5.39602L5.23199 6.52402C5.27999 7.14802 5.47199 7.79602 5.63999 7.94002ZM3.04799 9.14002C4.29599 9.71602 5.44799 10.1 5.99999 10.1C6.52799 10.1 7.72799 9.71602 8.97599 9.14002C10.104 8.61202 11.112 8.18002 11.16 8.18002C11.232 8.18002 11.28 8.34802 11.28 8.54002C11.28 9.06802 7.10399 11.06 5.99999 11.06C4.89599 11.06 0.71999 9.06802 0.71999 8.54002C0.71999 8.03602 0.74399 8.06002 3.04799 9.14002Z" fill="white"/>
<path d="M2.04002 7.22002C1.94402 7.38802 1.96802 7.60402 2.11202 7.74802C2.44802 8.08402 3.48002 7.89202 3.48002 7.46002C3.48002 7.02802 2.28002 6.83602 2.04002 7.22002Z" fill="white"/>
</svg>
