<svg width="89" height="79" viewBox="0 0 89 79" fill="none" xmlns="http://www.w3.org/2000/svg">
<g opacity="0.1">
<path d="M44.5003 78.9999C32.6279 78.9999 21.4739 74.8938 13.0928 67.4398C4.7069 59.9815 0.0901184 50.0612 0.0901184 39.5063C0.0901184 28.9514 4.7069 19.0269 13.088 11.5686C21.4739 4.11453 32.6279 0.00842285 44.5003 0.00842285C56.3727 0.00842285 67.5268 4.11453 75.9079 11.5686C84.2889 19.0226 88.9057 28.9471 88.9057 39.502C88.9057 50.0569 84.2889 59.9815 75.9079 67.4355C67.5268 74.8895 56.3679 78.9956 44.5003 78.9956V78.9999ZM44.5003 6.21444C23.8589 6.21444 7.06797 21.1523 7.06797 39.5106C7.06797 57.8688 23.8589 72.8024 44.5003 72.8024C65.1417 72.8024 81.9327 57.8688 81.9327 39.5106C81.9327 21.1523 65.137 6.21444 44.5003 6.21444Z" fill="#2D6CEA"/>
<path d="M44.5 66.8691C27.5319 66.8691 13.7294 54.5934 13.7294 39.5021C13.7294 24.4109 27.5319 12.1394 44.5 12.1394C61.4681 12.1394 75.2706 24.4152 75.2706 39.5064C75.2706 54.5976 61.4681 66.8734 44.5 66.8734V66.8691ZM44.5 18.3412C31.3824 18.3412 20.7073 27.8355 20.7073 39.5021C20.7073 51.1688 31.3824 60.6631 44.5 60.6631C57.6176 60.6631 68.2927 51.1688 68.2927 39.5021C68.2927 27.8355 57.6176 18.3412 44.5 18.3412Z" fill="#2D6CEA"/>
<path d="M44.5 54.7382C35.0557 54.7382 27.3738 47.906 27.3738 39.5064C27.3738 31.1068 35.0557 24.2746 44.5 24.2746C53.9443 24.2746 61.6262 31.1068 61.6262 39.5064C61.6262 47.906 53.9443 54.7382 44.5 54.7382ZM44.5 30.4764C38.9014 30.4764 34.3469 34.5271 34.3469 39.5064C34.3469 44.4857 38.9014 48.5364 44.5 48.5364C50.0986 48.5364 54.6531 44.4857 54.6531 39.5064C54.6531 34.5271 50.0986 30.4764 44.5 30.4764Z" fill="#2D6CEA"/>
</g>
<path d="M15.5637 68.3428C14.6729 68.3428 13.7773 68.0404 13.0973 67.4356C4.7018 59.9688 0.0802307 50.0485 0.0802307 39.5064C0.0802307 28.9643 4.7018 19.044 13.0973 11.5772C21.4927 4.11037 32.642 0 44.5 0C56.3581 0 67.5073 4.11037 75.9028 11.5772C84.2982 19.044 88.9198 28.96 88.9198 39.5064C88.9198 50.0528 84.2982 59.9688 75.9028 67.4356C74.5426 68.6453 72.33 68.6453 70.9699 67.4356C69.6098 66.2259 69.6098 64.258 70.9699 63.0484C78.0483 56.7529 81.9419 48.3959 81.9419 39.5064C81.9419 30.6169 78.0435 22.2599 70.9699 15.9644C63.8915 9.66895 54.4951 6.20602 44.5 6.20602C34.505 6.20602 25.1086 9.67321 18.0301 15.9644C10.9517 22.2599 7.05809 30.6169 7.05809 39.5064C7.05809 48.3959 10.9565 56.7529 18.0301 63.0484C19.3903 64.258 19.3903 66.2259 18.0301 67.4356C17.7063 67.7237 17.3218 67.9521 16.8986 68.1078C16.4753 68.2635 16.0217 68.3434 15.5637 68.3428Z" fill="url(#paint0_linear_9_273)" fill-opacity="0.61"/>
<path d="M63.7909 59.7643C62.9001 59.7643 62.0045 59.4619 61.3244 58.857C59.9643 57.6474 59.9643 55.6795 61.3244 54.4698C70.6011 46.2193 70.6011 32.7935 61.3244 24.5429C52.0478 16.2924 36.9522 16.2924 27.6756 24.5429C23.1785 28.5426 20.7025 33.8583 20.7025 39.5064C20.7025 45.1544 23.1785 50.4702 27.6756 54.4698C29.0357 55.6795 29.0357 57.6474 27.6756 58.857C26.3154 60.0667 24.1028 60.0667 22.7427 58.857C10.7458 48.1871 10.7458 30.8256 22.7427 20.1557C34.7396 9.48578 54.2604 9.48578 66.2573 20.1557C78.2542 30.8256 78.2542 48.1871 66.2573 58.857C65.9335 59.1451 65.549 59.3736 65.1257 59.5293C64.7025 59.6849 64.2489 59.7648 63.7909 59.7643Z" fill="url(#paint1_linear_9_273)" fill-opacity="0.73"/>
<path d="M54.1455 51.1858C53.2547 51.1858 52.3591 50.8834 51.679 50.2785C50.3189 49.0689 50.3189 47.101 51.679 45.8913C53.5995 44.1833 54.6579 41.9172 54.6579 39.5064C54.6579 38.1263 54.3131 36.7931 53.6522 35.5834L46.8707 41.6148C46.2145 42.1984 45.3285 42.5221 44.4042 42.5221C43.4799 42.5221 42.5939 42.1941 41.9378 41.6148L35.2904 35.7027C33.5519 39.0421 34.2272 43.1397 37.321 45.887C38.6811 47.0967 38.6811 49.0646 37.321 50.2743C35.9609 51.484 33.7483 51.484 32.3881 50.2743C25.712 44.3366 25.712 34.6719 32.3881 28.73C33.0443 28.1464 33.9303 27.8227 34.8546 27.8227C35.7789 27.8227 36.6649 28.1507 37.321 28.73L44.4042 35.0297L51.5784 28.6491C52.2183 28.0812 53.0806 27.756 53.9844 27.7417C54.8881 27.7274 55.763 28.0251 56.4251 28.5724C56.4874 28.6235 56.5496 28.6789 56.6119 28.73C63.288 34.6677 63.288 44.3323 56.6119 50.2743C56.2881 50.5624 55.9036 50.7908 55.4803 50.9465C55.0571 51.1022 54.6035 51.1821 54.1455 51.1815V51.1858Z" fill="url(#paint2_linear_9_273)" fill-opacity="0.52"/>
<defs>
<linearGradient id="paint0_linear_9_273" x1="44.5" y1="0" x2="44.5" y2="68.3429" gradientUnits="userSpaceOnUse">
<stop stop-color="#FF1AAB"/>
<stop offset="1" stop-color="#FF1AAB" stop-opacity="0"/>
</linearGradient>
<linearGradient id="paint1_linear_9_273" x1="44.5" y1="12.1533" x2="44.5" y2="59.7643" gradientUnits="userSpaceOnUse">
<stop stop-color="#6F52FF"/>
<stop offset="1" stop-color="#6F52FF" stop-opacity="0"/>
</linearGradient>
<linearGradient id="paint2_linear_9_273" x1="44.5" y1="27.7412" x2="44.5" y2="51.1858" gradientUnits="userSpaceOnUse">
<stop stop-color="#FF6600"/>
<stop offset="1" stop-color="#FF6600" stop-opacity="0"/>
</linearGradient>
</defs>
</svg>
